<mxfile host="app.diagrams.net" modified="2021-03-30T07:07:58.794Z" agent="5.0 (Windows NT 10.0; Win64; x64) AppleWebKit/537.36 (KHTML, like Gecko) Chrome/89.0.4389.90 Safari/537.36" etag="xuJh4HC_KWKkbVZSNYD5" version="14.5.3" type="github">
  <diagram name="Page-1" id="e7e014a7-5840-1c2e-5031-d8a46d1fe8dd">
    <mxGraphModel dx="868" dy="520" grid="1" gridSize="10" guides="1" tooltips="1" connect="1" arrows="1" fold="1" page="1" pageScale="1" pageWidth="1169" pageHeight="826" background="#ffffff" math="0" shadow="0">
      <root>
        <mxCell id="0" />
        <mxCell id="1" parent="0" />
        <mxCell id="vzdBjoWcfzII2oSM2Iy0-41" value="" style="verticalLabelPosition=bottom;verticalAlign=top;html=1;shadow=0;dashed=0;strokeWidth=1;shape=mxgraph.android.phone2;strokeColor=#c0c0c0;" vertex="1" parent="1">
          <mxGeometry x="400" y="66" width="300" height="534" as="geometry" />
        </mxCell>
        <mxCell id="vzdBjoWcfzII2oSM2Iy0-42" value="&lt;b&gt;&lt;font style=&quot;font-size: 18px&quot;&gt;HOME BANKING&lt;/font&gt;&lt;/b&gt;" style="text;html=1;resizable=0;autosize=1;align=center;verticalAlign=middle;points=[];fillColor=none;strokeColor=none;rounded=0;" vertex="1" parent="1">
          <mxGeometry x="470" y="120" width="160" height="20" as="geometry" />
        </mxCell>
        <mxCell id="vzdBjoWcfzII2oSM2Iy0-43" value="Saldo TOT." style="text;html=1;resizable=0;autosize=1;align=center;verticalAlign=middle;points=[];fillColor=none;strokeColor=none;rounded=0;" vertex="1" parent="1">
          <mxGeometry x="415" y="170" width="80" height="20" as="geometry" />
        </mxCell>
        <mxCell id="vzdBjoWcfzII2oSM2Iy0-44" value="€546" style="text;html=1;resizable=0;autosize=1;align=center;verticalAlign=middle;points=[];fillColor=none;strokeColor=none;rounded=0;" vertex="1" parent="1">
          <mxGeometry x="430" y="190" width="40" height="20" as="geometry" />
        </mxCell>
        <mxCell id="vzdBjoWcfzII2oSM2Iy0-45" value="&lt;b&gt;Movimenti in uscita ed entrata&amp;nbsp;&lt;/b&gt;" style="text;html=1;resizable=0;autosize=1;align=center;verticalAlign=middle;points=[];fillColor=none;strokeColor=none;rounded=0;" vertex="1" parent="1">
          <mxGeometry x="415" y="250" width="190" height="20" as="geometry" />
        </mxCell>
        <mxCell id="vzdBjoWcfzII2oSM2Iy0-46" value="Supermarket LIdl&amp;nbsp; 14/03/21&amp;nbsp; &amp;nbsp;" style="text;html=1;resizable=0;autosize=1;align=center;verticalAlign=middle;points=[];fillColor=none;strokeColor=none;rounded=0;" vertex="1" parent="1">
          <mxGeometry x="425" y="280" width="170" height="20" as="geometry" />
        </mxCell>
        <mxCell id="vzdBjoWcfzII2oSM2Iy0-47" value="uscita" style="text;html=1;resizable=0;autosize=1;align=center;verticalAlign=middle;points=[];fillColor=none;strokeColor=none;rounded=0;" vertex="1" parent="1">
          <mxGeometry x="620" y="300" width="50" height="20" as="geometry" />
        </mxCell>
        <mxCell id="vzdBjoWcfzII2oSM2Iy0-48" value="Stipendio 30/02/21&amp;nbsp; &amp;nbsp;&amp;nbsp;" style="text;html=1;resizable=0;autosize=1;align=center;verticalAlign=middle;points=[];fillColor=none;strokeColor=none;rounded=0;" vertex="1" parent="1">
          <mxGeometry x="425" y="360" width="130" height="20" as="geometry" />
        </mxCell>
        <mxCell id="vzdBjoWcfzII2oSM2Iy0-49" value="entrata" style="text;html=1;resizable=0;autosize=1;align=center;verticalAlign=middle;points=[];fillColor=none;strokeColor=none;rounded=0;" vertex="1" parent="1">
          <mxGeometry x="620" y="380" width="50" height="20" as="geometry" />
        </mxCell>
        <mxCell id="vzdBjoWcfzII2oSM2Iy0-51" value="€54&amp;nbsp;" style="text;html=1;resizable=0;autosize=1;align=center;verticalAlign=middle;points=[];fillColor=none;strokeColor=none;rounded=0;" vertex="1" parent="1">
          <mxGeometry x="435" y="320" width="40" height="20" as="geometry" />
        </mxCell>
        <mxCell id="vzdBjoWcfzII2oSM2Iy0-52" value="€ 600" style="text;html=1;resizable=0;autosize=1;align=center;verticalAlign=middle;points=[];fillColor=none;strokeColor=none;rounded=0;" vertex="1" parent="1">
          <mxGeometry x="430" y="393" width="50" height="20" as="geometry" />
        </mxCell>
      </root>
    </mxGraphModel>
  </diagram>
</mxfile>
